<?xml version="1.0" encoding="utf-8"?>
<!-- Generator: Adobe Illustrator 16.0.0, SVG Export Plug-In . SVG Version: 6.00 Build 0)  -->
<!DOCTYPE svg PUBLIC "-//W3C//DTD SVG 1.1//EN" "http://www.w3.org/Graphics/SVG/1.1/DTD/svg11.dtd">
<svg version="1.1" id="Layer_1" xmlns="http://www.w3.org/2000/svg" xmlns:xlink="http://www.w3.org/1999/xlink" x="0px" y="0px"
	 width="340px" height="97.25px" viewBox="0 0 340 97.25" enable-background="new 0 0 340 97.25" xml:space="preserve">
<path fill="#EC6800" d="M38.33,68.543l-0.061-34.088h-0.026c0-7.575,3.084-14.456,8.072-19.457l0.013-0.014l0.014-0.013
	c5-4.987,11.882-8.072,19.456-8.072v0.027l16.58,0.003v13.755l-16.58-0.004v0.026c-3.813,0-7.25,1.529-9.72,4l-0.028,0.027
	c-2.469,2.47-3.999,5.906-3.999,9.721h-0.027l0.062,34.088H38.33z"/>
<path fill-rule="evenodd" clip-rule="evenodd" fill="#EC6800" stroke="#EC6800" stroke-width="0.5669" stroke-miterlimit="22.9256" d="
	M16.008,29.931c5.869,0,10.656-4.787,10.656-10.656c0-5.869-4.787-10.656-10.656-10.656c-5.87,0-10.657,4.787-10.657,10.656
	C5.352,25.144,10.139,29.931,16.008,29.931z"/>
<path fill="#EC6800" d="M18.406,66.208c1.79,6.68,7.358,11.234,14.252,13.582c3.407,1.159,7.094,1.794,10.812,1.897
	c3.736,0.104,7.539-0.328,11.163-1.298c8.07-2.163,14.99-7.037,17.568-14.613l13.053,4.423C81.02,82.639,70.407,90.44,58.193,93.712
	c-4.843,1.297-9.989,1.872-15.1,1.73c-5.128-0.143-10.193-1.011-14.857-2.599C17.213,89.092,8.199,81.396,5.084,69.768
	L18.406,66.208z"/>
<path fill-rule="evenodd" clip-rule="evenodd" fill="#EC6800" d="M303.502,5.762c4.727,0,9.07,0.868,13.032,2.604
	c3.966,1.738,7.512,4.33,10.638,7.775v0.009c2.841,3.142,4.969,6.57,6.385,10.281c1.421,3.728,2.131,7.73,2.131,12.003
	c0,4.288-0.756,8.332-2.264,12.128c-1.503,3.784-3.744,7.283-6.721,10.49c-3.02,3.244-6.477,5.678-10.369,7.305
	c-3.874,1.617-8.151,2.426-12.832,2.426c-4.698,0-8.989-0.809-12.873-2.426c-3.9-1.626-7.362-4.061-10.383-7.305
	c-2.981-3.202-5.221-6.696-6.722-10.476c-1.51-3.8-2.263-7.85-2.263-12.143c0-4.256,0.71-8.245,2.132-11.963
	c1.415-3.701,3.541-7.124,6.38-10.263l-0.005-0.004c3.121-3.471,6.671-6.079,10.642-7.824h0.009
	C294.392,6.635,298.755,5.762,303.502,5.762L303.502,5.762z M138.257,45.97l6.23,3.287l1.95,1.029l-0.994,1.961
	c-1.076,2.123-2.234,4.034-3.472,5.736c-1.257,1.729-2.622,3.271-4.089,4.629v0.009c-1.45,1.333-2.988,2.507-4.613,3.519
	c-1.632,1.017-3.351,1.871-5.153,2.562c-1.812,0.691-3.747,1.214-5.805,1.563c-2.03,0.345-4.154,0.519-6.37,0.519
	c-4.989,0-9.456-0.826-13.403-2.48c-3.996-1.674-7.433-4.187-10.312-7.537c-2.814-3.275-4.929-6.776-6.343-10.501
	c-1.419-3.741-2.128-7.683-2.128-11.83c0-3.896,0.601-7.594,1.804-11.088c1.201-3.49,3-6.765,5.396-9.819l0.004,0.003
	c3.05-3.903,6.636-6.843,10.752-8.813c4.114-1.969,8.714-2.957,13.796-2.957c5.231,0,9.959,1.007,14.181,3.016
	c4.241,2.018,7.935,5.027,11.076,9.021l-0.001,0.001c2.248,2.834,3.943,6.021,5.085,9.559c1.126,3.487,1.708,7.313,1.747,11.474
	l0.021,2.262h-2.257h-49.37c0.216,2.191,0.688,4.221,1.412,6.089c0.958,2.471,2.369,4.671,4.227,6.601
	c1.856,1.922,3.915,3.359,6.177,4.312c2.257,0.949,4.758,1.425,7.504,1.425c1.368,0,2.687-0.112,3.952-0.34
	c1.286-0.231,2.558-0.579,3.81-1.046c1.261-0.47,2.436-1.017,3.52-1.644c1.052-0.608,2.003-1.283,2.849-2.025l0.009-0.009
	c0.851-0.74,1.761-1.739,2.726-2.994c0.998-1.298,2.04-2.854,3.121-4.661l1.09-1.822L138.257,45.97L138.257,45.97z M134.213,30.213
	c-0.266-0.765-0.552-1.483-0.858-2.155c-0.646-1.417-1.381-2.64-2.199-3.663l-0.004,0.003c-0.837-1.044-1.81-1.991-2.918-2.838
	c-1.115-0.852-2.372-1.604-3.769-2.254c-1.422-0.661-2.86-1.154-4.316-1.477c-1.444-0.32-2.955-0.48-4.534-0.48
	c-2.561,0-4.924,0.406-7.083,1.216c-2.16,0.811-4.149,2.031-5.963,3.659v0.009c-1.307,1.163-2.455,2.621-3.443,4.372
	c-0.61,1.081-1.166,2.284-1.667,3.609H134.213L134.213,30.213z M154.443,7.242h-2.245v2.245v6.519v2.245h2.245h25.44l-30.395,47.605
	l-2.2,3.445h4.085h44.298h2.244v-2.244v-6.556v-2.244h-2.244H168.21l30.394-47.569l2.202-3.446h-4.088H154.443L154.443,7.242z
	 M254.759,7.242h7.459h2.244v2.245v45.886c0,4.113-0.182,7.696-0.546,10.747c-0.372,3.124-0.944,5.711-1.716,7.758h-0.001
	c-1.057,2.886-2.507,5.442-4.347,7.666c-1.849,2.236-4.091,4.137-6.721,5.699l-0.002-0.002c-2.586,1.54-5.424,2.693-8.515,3.458
	c-3.071,0.76-6.379,1.14-9.924,1.14c-2.541,0-4.995-0.188-7.357-0.56c-2.378-0.375-4.606-0.932-6.679-1.667
	c-2.097-0.74-4.006-1.611-5.729-2.615c-1.753-1.021-3.312-2.179-4.676-3.474c-1.36-1.29-2.656-2.863-3.887-4.719
	c-1.193-1.8-2.337-3.889-3.431-6.267l-1.461-3.175h3.495h8.036h1.298l0.648,1.131c0.987,1.721,2.118,3.217,3.39,4.488
	c1.27,1.27,2.663,2.308,4.175,3.116l0.002-0.003c1.542,0.815,3.288,1.433,5.232,1.847c1.978,0.423,4.174,0.635,6.582,0.635
	c2.387,0,4.555-0.215,6.501-0.646c1.915-0.426,3.647-1.061,5.196-1.907l0.009-0.009c1.56-0.841,2.886-1.786,3.978-2.831
	c1.062-1.015,1.906-2.129,2.533-3.337c0.633-1.221,1.115-2.86,1.446-4.915c0.242-1.502,0.399-3.231,0.473-5.185
	c-0.312,0.27-0.629,0.532-0.951,0.788c-1.828,1.453-3.832,2.69-6.005,3.709l0.001,0.004c-2.154,1.015-4.385,1.775-6.692,2.286
	c-2.318,0.513-4.673,0.768-7.066,0.768c-2.825,0-5.583-0.355-8.268-1.063c-2.661-0.703-5.244-1.761-7.745-3.171h-0.009
	c-2.499-1.414-4.718-3.075-6.656-4.982c-1.953-1.921-3.614-4.078-4.984-6.469c-1.365-2.383-2.392-4.896-3.079-7.544
	c-0.687-2.642-1.029-5.38-1.029-8.215c0-2.846,0.356-5.61,1.07-8.29c0.709-2.665,1.778-5.238,3.207-7.718l-0.006-0.003
	c1.413-2.469,3.112-4.686,5.092-6.654c1.965-1.951,4.206-3.649,6.721-5.095v-0.009c2.481-1.424,5.06-2.502,7.729-3.23
	c2.673-0.728,5.393-1.095,8.156-1.095c2.296,0,4.538,0.246,6.729,0.734c2.186,0.487,4.276,1.208,6.272,2.158l0.009,0.009
	c2.042,0.981,4.022,2.258,5.938,3.826c0.542,0.443,1.08,0.912,1.616,1.405V9.487V7.242H254.759L254.759,7.242z M232.908,17.402
	c-1.924,0-3.76,0.227-5.506,0.681c-1.748,0.454-3.443,1.142-5.081,2.064l-0.002-0.003c-1.625,0.923-3.075,2.017-4.346,3.279
	c-1.265,1.256-2.357,2.686-3.271,4.289c-0.924,1.619-1.619,3.307-2.082,5.058c-0.459,1.737-0.689,3.555-0.689,5.449
	c0,2.873,0.473,5.478,1.42,7.815c0.943,2.327,2.36,4.412,4.252,6.255c1.892,1.843,4.061,3.224,6.502,4.141
	c2.479,0.93,5.275,1.396,8.389,1.396c3.149,0,5.96-0.461,8.43-1.384c2.431-0.908,4.566-2.274,6.407-4.099l0.009-0.009
	c1.848-1.815,3.233-3.918,4.154-6.304c0.934-2.416,1.4-5.16,1.4-8.227c0-2.001-0.216-3.878-0.648-5.627
	c-0.433-1.75-1.074-3.381-1.925-4.889l-0.009-0.009c-0.845-1.521-1.866-2.881-3.065-4.078c-1.198-1.197-2.586-2.239-4.165-3.126
	v-0.009c-1.565-0.884-3.204-1.553-4.913-2.001C236.492,17.624,234.738,17.402,232.908,17.402L232.908,17.402z M303.502,17.511
	c-5.512,0-10.25,2.048-14.215,6.142c-1.996,2.062-3.491,4.33-4.483,6.807c-0.99,2.472-1.485,5.183-1.485,8.137
	c0,1.912,0.224,3.741,0.675,5.482c0.449,1.734,1.133,3.419,2.051,5.052v0.009c0.904,1.628,1.966,3.065,3.188,4.314
	c1.201,1.229,2.573,2.284,4.116,3.169c1.543,0.883,3.152,1.541,4.824,1.976c1.675,0.435,3.452,0.652,5.33,0.652
	c1.868,0,3.641-0.218,5.316-0.652c1.685-0.438,3.301-1.097,4.847-1.976l0.002,0.003c1.517-0.876,2.888-1.935,4.107-3.181
	c1.219-1.244,2.282-2.678,3.185-4.306c0.911-1.633,1.596-3.329,2.051-5.085c0.449-1.734,0.676-3.555,0.676-5.458
	c0-2.953-0.5-5.664-1.497-8.137c-0.997-2.475-2.501-4.743-4.508-6.807c-2.011-2.068-4.192-3.612-6.543-4.629
	C308.806,18.016,306.261,17.511,303.502,17.511z"/>
</svg>
