<?xml version="1.0" encoding="windows-1252"?>
<!-- Generator: Adobe Illustrator 17.0.0, SVG Export Plug-In . SVG Version: 6.00 Build 0)  -->
<!DOCTYPE svg PUBLIC "-//W3C//DTD SVG 1.1//EN" "http://www.w3.org/Graphics/SVG/1.1/DTD/svg11.dtd">
<svg version="1.1" id="Layer_1" xmlns="http://www.w3.org/2000/svg" xmlns:xlink="http://www.w3.org/1999/xlink" x="0px" y="0px" width="228.651px" height="152px" viewBox="0 0 228.651 152" style="enable-background:new 0 0 228.651 152;" xml:space="preserve">
<style type="text/css">
	.st0{fill:#007AA6;}
	.st1{fill:#FFFFFF;}
	.st2{fill:#EBEDED;}
	.st3{fill:#E57E25;}
	.st4{opacity:0.1;fill:#231F20;}
	.st5{fill:#231F20;}
	.st6{fill:#0556A3;}
	.st7{fill:#F29C1F;}
	.st8{fill:#2756A6;}
	.st9{fill:#22205F;}
	.st10{fill:#CB2027;}
	.st11{fill:#F8991D;}
</style>
<g>
	<path class="st2" d="M228.422,136.8c0,8.395-6.805,15.2-15.2,15.2h-197.6c-8.395,0-15.2-6.805-15.2-15.2V15.2   c0-8.395,6.805-15.2,15.2-15.2h197.6c8.395,0,15.2,6.805,15.2,15.2V136.8z"/>
	<path class="st3" d="M213.678,152c8.395,0,14.744-6.014,14.744-14.409V92.714c0,0-58.359,41.286-166.079,59.286H213.678z"/>
	<path class="st4" d="M228.651,92.714c0,0-58.588,41.691-166.308,59.691C190.874,152.405,228.651,92.714,228.651,92.714z"/>
	<g>
		<path class="st5" d="M24.756,45.765h-9.114v31.83h9.066c4.82,0,8.301-1.137,11.357-3.675c3.631-3.005,5.778-7.534,5.778-12.218    C41.843,52.309,34.825,45.765,24.756,45.765z M32.009,69.677c-1.951,1.762-4.485,2.53-8.497,2.53h-1.666V51.159h1.666    c4.012,0,6.446,0.718,8.497,2.574c2.147,1.912,3.439,4.874,3.439,7.924C35.448,64.712,34.156,67.766,32.009,69.677z"/>
		<rect x="44.7" y="45.765" class="st5" width="6.209" height="31.83"/>
		<path class="st5" d="M66.09,57.98c-3.726-1.379-4.82-2.288-4.82-4.007c0-2.005,1.949-3.528,4.625-3.528    c1.86,0,3.389,0.764,5.007,2.578l3.248-4.254c-2.67-2.335-5.863-3.529-9.353-3.529c-5.632,0-9.927,3.911-9.927,9.12    c0,4.385,2,6.63,7.831,8.729c2.431,0.857,3.668,1.428,4.292,1.813c1.241,0.81,1.861,1.957,1.861,3.294    c0,2.579-2.051,4.49-4.82,4.49c-2.961,0-5.347-1.481-6.776-4.245l-4.011,3.862c2.861,4.199,6.296,6.06,11.02,6.06    c6.452,0,10.978-4.29,10.978-10.452C75.246,62.852,73.153,60.563,66.09,57.98z"/>
		<path class="st5" d="M77.204,61.703c0,9.356,7.347,16.611,16.801,16.611c2.673,0,4.962-0.525,7.784-1.855V69.15    c-2.482,2.484-4.681,3.486-7.495,3.486c-6.253,0-10.691-4.534-10.691-10.979c0-6.111,4.578-10.932,10.402-10.932    c2.962,0,5.203,1.057,7.784,3.582v-7.305c-2.726-1.382-4.966-1.955-7.638-1.955C84.746,45.046,77.204,52.448,77.204,61.703z"/>
		<polygon class="st5" points="151.018,67.146 142.53,45.765 135.747,45.765 149.255,78.412 152.596,78.412 166.347,45.765     159.617,45.765   "/>
		<polygon class="st5" points="169.154,77.596 186.762,77.596 186.762,72.207 175.358,72.207 175.358,63.615 186.342,63.615     186.342,58.224 175.358,58.224 175.358,51.159 186.762,51.159 186.762,45.765 169.154,45.765   "/>
		<path class="st5" d="M211.345,55.163c0-5.959-4.105-9.397-11.265-9.397h-9.206v31.83h6.202V64.809h0.81l8.594,12.787h7.635    l-10.021-13.41C208.771,63.235,211.345,60.036,211.345,55.163z M198.889,60.42h-1.813v-9.64h1.912c3.867,0,5.969,1.62,5.969,4.718    C204.956,58.697,202.855,60.42,198.889,60.42z"/>
		<circle class="st3" cx="120.75" cy="61.79" r="16.933"/>
	</g>
</g>
</svg>