<?xml version="1.0" encoding="UTF-8"?>
<!-- Generator: Adobe Illustrator 16.0.0, SVG Export Plug-In . SVG Version: 6.00 Build 0)  -->
<!DOCTYPE svg PUBLIC "-//W3C//DTD SVG 1.1//EN" "http://www.w3.org/Graphics/SVG/1.1/DTD/svg11.dtd">
<svg version="1.1" id="Layer_1" xmlns="http://www.w3.org/2000/svg" xmlns:xlink="http://www.w3.org/1999/xlink" x="0px" y="0px" width="659.055px" height="202.069px" viewBox="0 0 659.055 202.069" enable-background="new 0 0 659.055 202.069" xml:space="preserve">
<g>
	<g>
		<polygon fill="#00249F" points="232.178,199.164 265.539,3.402 318.898,3.402 285.514,199.164   "/>
		<path fill="#00249F" d="M479.04,8.222C468.468,4.256,451.904,0,431.217,0c-52.724,0-89.863,26.552-90.18,64.604    c-0.297,28.129,26.514,43.82,46.754,53.185c20.77,9.595,27.752,15.715,27.652,24.283c-0.131,13.122-16.586,19.117-31.922,19.117    c-21.357,0-32.703-2.967-50.227-10.276l-6.876-3.111l-7.489,43.823c12.462,5.464,35.509,10.199,59.438,10.444    c56.089,0,92.501-26.247,92.915-66.882c0.201-22.27-14.016-39.217-44.799-53.188c-18.651-9.056-30.073-15.099-29.952-24.269    c0-8.137,9.668-16.838,30.557-16.838c17.449-0.271,30.088,3.534,39.937,7.5l4.781,2.259L479.04,8.222"/>
		<path fill="#00249F" d="M615.867,3.589h-41.231c-12.772,0-22.331,3.486-27.94,16.234L467.45,199.226h56.031    c0,0,9.161-24.122,11.233-29.418c6.123,0,60.555,0.084,68.336,0.084c1.597,6.853,6.492,29.334,6.492,29.334h49.512L615.867,3.589     M550.07,129.767c4.413-11.279,21.259-54.724,21.259-54.724c-0.315,0.521,4.38-11.334,7.075-18.684l3.606,16.878    c0,0,10.217,46.729,12.353,56.528L550.07,129.767L550.07,129.767z"/>
		<path fill="#00249F" d="M187.425,3.545l-52.24,133.495l-5.566-27.129c-9.725-31.273-40.025-65.156-73.899-82.119l47.767,171.203    l56.455-0.064L243.946,3.545H187.425"/>
		<path fill="#FFA000" d="M86.722,3.424H0.681L0,7.497C66.939,23.701,111.232,62.86,129.618,109.911l-18.709-89.96    C107.679,7.555,98.311,3.856,86.722,3.424"/>
	</g>
</g>
</svg>